<?xml version="1.0" encoding="utf-8"?>
<!-- Generator: Adobe Illustrator 15.1.0, SVG Export Plug-In . SVG Version: 6.00 Build 0)  -->
<!DOCTYPE svg PUBLIC "-//W3C//DTD SVG 1.1//EN" "http://www.w3.org/Graphics/SVG/1.1/DTD/svg11.dtd">
<svg version="1.1" id="Layer_1" xmlns="http://www.w3.org/2000/svg" xmlns:xlink="http://www.w3.org/1999/xlink" x="0px" y="0px"
	 width="512px" height="512px" viewBox="0 0 512 512" enable-background="new 0 0 512 512" xml:space="preserve">
<path fill="#939598" d="M191.111,425.358h20.842l4.877-24.28h22.943c0.669,0.037,1.353,0.057,2.029,0.057
	c10.022,0,20.117-4.03,27.693-11.059c5.92-5.49,12.98-15.268,12.98-30.644c0-15.774-9.478-24.34-28.164-25.458H210.15
	L191.111,425.358z M237.332,386.006h-16.045l6.497-36.96h16.805c9.876,0,15.771,4.315,15.771,11.541l-0.003,0.069
	c-1.32,21.291-12.546,24.246-22.964,25.344L237.332,386.006z"/>
<path fill="#939598" d="M332.838,401.078h22.055l8.367-46.473c1.027-4.869,0.251-9.015-2.301-12.359
	c-3.67-4.809-10.932-7.669-21.002-8.271h-23.304l4.889-19.012h-22.571l-17.338,86.115h20.852l10.975-52.032h19.212
	c4.043,0,6.546,0.769,7.884,2.419c1.668,2.055,1.21,5.053,0.547,8.201L332.838,401.078z"/>
<path fill="#939598" d="M358.46,425.358h20.842l4.877-24.28h22.944c0.668,0.037,1.35,0.057,2.026,0.057
	c10.023,0,20.117-4.03,27.694-11.059c5.92-5.49,12.979-15.268,12.979-30.644c0-15.774-9.476-24.34-28.164-25.458h-44.161
	L358.46,425.358z M404.682,386.006h-16.048l6.497-36.96h16.806c9.875,0,15.77,4.315,15.77,11.541l-0.002,0.069
	C426.385,381.947,415.158,384.9,404.74,386L404.682,386.006z"/>
<path fill="#939598" d="M58.519,362.324l73.631-25.913l-3.413,16.138l-52.289,17.178l44.943,17.238l-3.413,16.079l-62.643-25.913
	L58.519,362.324z"/>
<path fill="#939598" d="M154.129,319.348c5.167-2.93,11.066-4.396,17.699-4.396c8.714,0,15.51,2.082,20.388,6.248
	c4.88,4.164,6.449,10.334,4.715,18.508c-1.079,5.014-3.24,9.236-6.478,12.668c-1.891,2.082-5.264,4.743-10.122,7.982l-4.801,3.182
	c-2.584,1.734-4.492,3.76-5.726,6.072c-0.772,1.467-1.505,3.741-2.198,6.825H151.99c1.619-6.517,3.19-11.019,4.713-13.507
	c1.523-2.486,4.715-5.351,9.572-8.586l4.917-3.299c1.619-1.043,2.987-2.18,4.106-3.413c2.006-2.12,3.278-4.453,3.818-6.999
	c0.615-2.93,0.319-5.6-0.897-8.012c-1.214-2.408-4.098-3.614-8.647-3.614c-4.474,0-7.953,1.485-10.441,4.455
	c-2.486,2.969-4.078,6.054-4.772,9.254h-16.715C140.459,331.727,145.954,323.938,154.129,319.348z M149.907,384.361h17.237
	l-3.528,16.717h-17.236L149.907,384.361z"/>
<g>
	<polygon points="111.633,268.814 165.27,268.814 113.735,82.715 58.159,82.715 6.625,268.814 60.262,268.814 85.947,176.06 	"/>
</g>
<g>
	<polygon fill="#FAA61A" points="325.58,268.814 379.217,268.814 327.683,82.715 272.105,82.715 246.421,175.47 220.735,82.715 
		165.107,82.715 149.738,138.216 176.555,235.061 192.92,175.963 218.633,268.814 274.208,268.814 299.895,176.06 	"/>
</g>
<path d="M401.392,82.715h-53.637l51.534,186.099h55.576l51.533-186.099h-53.636l-25.686,92.755L401.392,82.715z"/>
</svg>
